<svg xmlns="http://www.w3.org/2000/svg" viewBox="4043 255 180 34.953"><defs><style>.a,.b{fill:#00457c;}.b{fill-rule:evenodd;}</style></defs><g transform="translate(3668 237)"><g transform="translate(375 18)"><path class="a" d="M26.433,6.262l-3.645,4.417c-2.316-3-5.018-4.5-8.063-4.5A8.342,8.342,0,0,0,7.991,9.435a12.023,12.023,0,0,0-2.7,7.934A12.356,12.356,0,0,0,8.12,25.561a8.767,8.767,0,0,0,6.948,3.345,7.524,7.524,0,0,0,4.546-1.372A9.04,9.04,0,0,0,22.573,23.2H14.639V17.241H28.363l.043,1.415a18.978,18.978,0,0,1-1.844,8.277,14.71,14.71,0,0,1-4.8,5.961,11.726,11.726,0,0,1-6.9,2.059A13.065,13.065,0,0,1,7.305,32.68,15.2,15.2,0,0,1,2.03,26.247,21.23,21.23,0,0,1,.1,17.241,19.067,19.067,0,0,1,3.66,5.747,13.056,13.056,0,0,1,14.682,0a14.2,14.2,0,0,1,6.648,1.587A16.927,16.927,0,0,1,26.433,6.262Z" transform="translate(-0.1)"/><path class="a" d="M73,21.343h4.332v3.088a6.175,6.175,0,0,1,1.887-2.788,3.9,3.9,0,0,1,2.573-.944,4.092,4.092,0,0,1,2.059.643l-1.587,5.318a3.3,3.3,0,0,0-1.458-.558c-.772,0-1.415.6-1.973,1.758s-.815,3.474-.815,6.948V45.961H73Z" transform="translate(-41.735 -11.822)"/><path class="a" d="M117.84,21.343H122.9V45.961H117.84V43.345a10.144,10.144,0,0,1-2.959,2.487,6.849,6.849,0,0,1-3.217.772c-2.616,0-4.846-1.244-6.733-3.688a14.757,14.757,0,0,1-2.831-9.221,15.031,15.031,0,0,1,2.745-9.35,8.147,8.147,0,0,1,6.69-3.645,7.1,7.1,0,0,1,3.388.858,9.523,9.523,0,0,1,2.959,2.53V21.343ZM112.522,26.4a4.8,4.8,0,0,0-3.9,2.016,8.294,8.294,0,0,0-1.544,5.189,8.18,8.18,0,0,0,1.587,5.232,4.8,4.8,0,0,0,7.848.043,8.527,8.527,0,0,0,1.587-5.318,7.975,7.975,0,0,0-1.587-5.189A4.913,4.913,0,0,0,112.522,26.4Z" transform="translate(-58.355 -11.822)"/><path class="a" d="M176.14,0H181.2V34.139H176.14V31.522a10.145,10.145,0,0,1-2.959,2.487,6.849,6.849,0,0,1-3.217.772c-2.616,0-4.846-1.244-6.733-3.688a14.757,14.757,0,0,1-2.831-9.221,15.031,15.031,0,0,1,2.745-9.35,8.147,8.147,0,0,1,6.69-3.645,7.1,7.1,0,0,1,3.388.858,9.523,9.523,0,0,1,2.959,2.53V0Zm-5.318,14.582a4.8,4.8,0,0,0-3.9,2.016,8.3,8.3,0,0,0-1.544,5.189,8.18,8.18,0,0,0,1.587,5.232,4.8,4.8,0,0,0,7.848.043,8.527,8.527,0,0,0,1.587-5.318,7.975,7.975,0,0,0-1.587-5.189A4.856,4.856,0,0,0,170.822,14.582Z" transform="translate(-91.651)"/><path class="a" d="M220.8,22.2h5.1V34.08a20.025,20.025,0,0,0,.386,4.8,4.442,4.442,0,0,0,1.244,2.1,3.034,3.034,0,0,0,2.144.729,3.326,3.326,0,0,0,2.144-.729,4.286,4.286,0,0,0,1.33-2.144,20.339,20.339,0,0,0,.3-4.546V22.2h5.061V32.622c0,4.289-.257,7.248-.815,8.835a9.464,9.464,0,0,1-3,4.46,7.953,7.953,0,0,1-5.018,1.544,7.8,7.8,0,0,1-5.361-1.8,9.635,9.635,0,0,1-2.873-5.061,37.6,37.6,0,0,1-.6-8.149V22.2Z" transform="translate(-126.147 -12.679)"/><path class="a" d="M284.039,24.717l-3.131,3.817q-1.93-2.316-3.474-2.316a1.841,1.841,0,0,0-1.33.429,1.53,1.53,0,0,0-.172,2.016,5.775,5.775,0,0,0,1.5,1.158l1.844,1.115a11.289,11.289,0,0,1,4.031,3.6,8.169,8.169,0,0,1,1.072,4.289,7.848,7.848,0,0,1-1.973,5.49,6.8,6.8,0,0,1-5.275,2.187c-2.916,0-5.275-1.415-7.034-4.2l3.131-4.16a7.371,7.371,0,0,0,2.1,2.059,4.1,4.1,0,0,0,2.1.772,2.309,2.309,0,0,0,1.63-.6,1.765,1.765,0,0,0,.6-1.372c0-.944-.729-1.887-2.187-2.788l-1.716-1.029c-3.259-2.016-4.889-4.5-4.889-7.548a7.154,7.154,0,0,1,1.844-4.975,6.05,6.05,0,0,1,4.718-2.059,6.818,6.818,0,0,1,3.688,1.072A8.661,8.661,0,0,1,284.039,24.717Z" transform="translate(-154.303 -11.765)"/></g><path class="b" d="M356.96,20.3h21.4s3.56,0,3.517,3.388a3.224,3.224,0,0,1-3.431,3.259h-21.53s-3.517.043-3.517-3.3S356.96,20.3,356.96,20.3Z" transform="translate(173.122 6.406)"/><path class="b" d="M340.26,42h21.4s3.56,0,3.517,3.388a3.224,3.224,0,0,1-3.431,3.259h-21.53s-3.517.043-3.517-3.3C336.743,42,340.26,42,340.26,42Z" transform="translate(182.66 -5.987)"/><path class="b" d="M323.46,64.8h21.4s3.56,0,3.517,3.388a3.224,3.224,0,0,1-3.431,3.259h-21.53s-3.517.043-3.517-3.3S323.46,64.8,323.46,64.8Z" transform="translate(192.255 -19.009)"/></g></svg>